<svg width="24" height="24" viewBox="0 0 24 24" fill="none" xmlns="http://www.w3.org/2000/svg">
<path d="M12.7371 15.5245L18.3871 9.86448C18.4808 9.77152 18.5552 9.66091 18.606 9.53906C18.6567 9.4172 18.6829 9.28649 18.6829 9.15448C18.6829 9.02247 18.6567 8.89176 18.606 8.7699C18.5552 8.64804 18.4808 8.53744 18.3871 8.44448C18.1997 8.25823 17.9462 8.15369 17.6821 8.15369C17.4179 8.15369 17.1644 8.25823 16.9771 8.44448L11.9771 13.3945L7.02706 8.44448C6.8397 8.25823 6.58625 8.15369 6.32206 8.15369C6.05788 8.15369 5.80442 8.25823 5.61706 8.44448C5.52257 8.53709 5.4474 8.64754 5.39591 8.76941C5.34441 8.89129 5.31761 9.02217 5.31706 9.15448C5.31761 9.28679 5.34441 9.41767 5.39591 9.53954C5.4474 9.66142 5.52257 9.77186 5.61706 9.86448L11.2671 15.5245C11.3607 15.626 11.4744 15.707 11.6009 15.7624C11.7274 15.8178 11.864 15.8464 12.0021 15.8464C12.1402 15.8464 12.2768 15.8178 12.4033 15.7624C12.5298 15.707 12.6434 15.626 12.7371 15.5245Z" fill="#8F8F8F"/>
</svg>
