<svg width="24" height="24" viewBox="0 0 24 24" fill="none" xmlns="http://www.w3.org/2000/svg">
<path d="M6.07756 12.3809C6.12515 12.5037 6.19652 12.6158 6.28756 12.7109L11.2876 17.7109C11.3808 17.8042 11.4915 17.8781 11.6133 17.9286C11.7351 17.979 11.8657 18.005 11.9976 18.005C12.2639 18.005 12.5193 17.8992 12.7076 17.7109C12.8008 17.6177 12.8748 17.507 12.9252 17.3852C12.9757 17.2633 13.0016 17.1328 13.0016 17.0009C13.0016 16.7346 12.8959 16.4792 12.7076 16.2909L9.40756 13.0009L16.9976 13.0009C17.2628 13.0009 17.5171 12.8956 17.7047 12.708C17.8922 12.5205 17.9976 12.2661 17.9976 12.0009C17.9976 11.7357 17.8922 11.4813 17.7047 11.2938C17.5171 11.1063 17.2628 11.0009 16.9976 11.0009L9.40756 11.0009L12.7076 7.71091C12.8013 7.61795 12.8757 7.50735 12.9265 7.38549C12.9772 7.26363 13.0034 7.13292 13.0034 7.00091C13.0034 6.8689 12.9772 6.7382 12.9265 6.61634C12.8757 6.49448 12.8013 6.38388 12.7076 6.29091C12.6146 6.19719 12.504 6.12279 12.3821 6.07202C12.2603 6.02125 12.1296 5.99511 11.9976 5.99511C11.8655 5.99511 11.7348 6.02125 11.613 6.07202C11.4911 6.12279 11.3805 6.19719 11.2876 6.29091L6.28756 11.2909C6.19652 11.386 6.12515 11.4982 6.07756 11.6209C5.97754 11.8644 5.97754 12.1375 6.07756 12.3809Z" fill="#3B3B3B"/>
</svg>
