<svg width="170" height="45" viewBox="0 0 170 45" fill="none" xmlns="http://www.w3.org/2000/svg">
<path d="M102.548 18.6929H99.0059V25.0439H94.3574V3.87964H103.007C108.048 3.87964 111.112 6.87635 111.112 11.2011V11.2693C111.095 16.1559 107.281 18.6929 102.548 18.6929ZM106.379 11.2863C106.379 9.20901 104.931 8.08525 102.599 8.08525H99.0059V14.5554H102.701C105.034 14.5554 106.396 13.1592 106.396 11.3544V11.2863H106.379Z" fill="white"/>
<path d="M123.536 18.6929H119.994V25.0439H115.345V3.87964H123.995C129.035 3.87964 132.1 6.87635 132.1 11.2011V11.2693C132.083 16.1559 128.269 18.6929 123.536 18.6929ZM127.367 11.2863C127.367 9.20901 125.919 8.08525 123.587 8.08525H119.994V14.5554H123.689C126.022 14.5554 127.384 13.1592 127.384 11.3544V11.2863H127.367Z" fill="white"/>
<path d="M135.98 25.0269V3.87964H140.623V20.8042H151.148V25.0439H135.98V25.0269Z" fill="white"/>
<path d="M161.742 16.6157V25.0439H157.116V16.7008L149.032 3.87964H154.455L159.454 12.393L164.573 3.89667H169.843L161.742 16.6157Z" fill="white"/>
<path d="M78.2197 2.11646L65.7856 25.0444H71.0371L78.2197 11.7873L85.3684 24.9764L85.4022 25.0444H90.6537L78.2197 2.11646Z" fill="white"/>
<path d="M71.5537 41.7986H68.4309V33.5093H71.5537C74.196 33.5093 76.0148 35.2892 76.0148 37.6455C76.0148 39.9848 74.1789 41.7986 71.5537 41.7986ZM71.5537 34.8485H69.9065V40.4764H71.5537C73.321 40.4764 74.4705 39.3067 74.4705 37.6794C74.4705 36.0351 73.321 34.8485 71.5537 34.8485Z" fill="white"/>
<path d="M87.6551 33.5093V41.7986H86.2441V33.5093H87.6551Z" fill="white"/>
<path d="M102.357 41.975C99.759 41.975 98.0609 40.1096 98.0609 37.6625C98.0609 35.318 99.8439 33.3329 102.34 33.3329C103.783 33.3329 104.666 33.7436 105.532 34.4623L104.616 35.5747C103.97 35.0271 103.342 34.6848 102.289 34.6848C100.761 34.6848 99.6062 36.0196 99.6062 37.6454C99.6062 39.3738 100.727 40.6401 102.425 40.6401C103.206 40.6401 103.919 40.3835 104.429 40.007V38.4497H102.289V37.1662H105.821V40.6744C105.006 41.376 103.834 41.975 102.357 41.975Z" fill="white"/>
<path d="M117.814 33.5093V41.7986H116.403V33.5093H117.814Z" fill="white"/>
<path d="M132.492 41.7986H131.02V34.8654H128.396V33.5093H135.098V34.8654H132.475V41.7986H132.492Z" fill="white"/>
<path d="M162.259 33.5093H163.718V40.4737H168.079V41.7986H162.259V33.5093Z" fill="white"/>
<path d="M147.62 36.2797L150.61 41.7986H152.206L147.62 33.3329L143.035 41.7986H144.631L147.62 36.2797Z" fill="white"/>
<path d="M25.5812 0L0 44.0922H51.147L25.5812 0ZM15.6863 30.8692H27.6562L21.679 20.5589L25.5812 13.8241L39.3784 37.604H11.7841L15.6863 30.8692Z" fill="white"/>
</svg>
